<mxfile host="app.diagrams.net" agent="Mozilla/5.0 (Windows NT 10.0; Win64; x64) AppleWebKit/537.36 (KHTML, like Gecko) Chrome/133.0.0.0 Safari/537.36 Edg/133.0.0.0" version="26.0.12">
  <diagram id="pOvx8hs4_Eqs4VuGjHOv" name="PÃ¡gina-1">
    <mxGraphModel dx="1226" dy="665" grid="1" gridSize="10" guides="1" tooltips="1" connect="1" arrows="1" fold="1" page="1" pageScale="1" pageWidth="827" pageHeight="1169" math="0" shadow="0">
      <root>
        <mxCell id="0" />
        <mxCell id="1" parent="0" />
        <mxCell id="WNM4cOuRWmxgdN0Uf4mu-5" style="edgeStyle=orthogonalEdgeStyle;rounded=0;orthogonalLoop=1;jettySize=auto;html=1;entryX=0;entryY=0.5;entryDx=0;entryDy=0;" edge="1" parent="1" source="WNM4cOuRWmxgdN0Uf4mu-1" target="WNM4cOuRWmxgdN0Uf4mu-4">
          <mxGeometry relative="1" as="geometry" />
        </mxCell>
        <mxCell id="WNM4cOuRWmxgdN0Uf4mu-1" value="&lt;b&gt;informacion_nutricional&lt;/b&gt;" style="rounded=1;whiteSpace=wrap;html=1;" vertex="1" parent="1">
          <mxGeometry x="120" y="220" width="160" height="60" as="geometry" />
        </mxCell>
        <mxCell id="WNM4cOuRWmxgdN0Uf4mu-6" style="edgeStyle=orthogonalEdgeStyle;rounded=0;orthogonalLoop=1;jettySize=auto;html=1;entryX=0;entryY=0.5;entryDx=0;entryDy=0;" edge="1" parent="1" source="WNM4cOuRWmxgdN0Uf4mu-4" target="WNM4cOuRWmxgdN0Uf4mu-7">
          <mxGeometry relative="1" as="geometry">
            <mxPoint x="520" y="30" as="targetPoint" />
          </mxGeometry>
        </mxCell>
        <mxCell id="WNM4cOuRWmxgdN0Uf4mu-9" style="edgeStyle=orthogonalEdgeStyle;rounded=0;orthogonalLoop=1;jettySize=auto;html=1;entryX=0;entryY=0.5;entryDx=0;entryDy=0;" edge="1" parent="1" source="WNM4cOuRWmxgdN0Uf4mu-4" target="WNM4cOuRWmxgdN0Uf4mu-8">
          <mxGeometry relative="1" as="geometry" />
        </mxCell>
        <mxCell id="WNM4cOuRWmxgdN0Uf4mu-13" style="edgeStyle=orthogonalEdgeStyle;rounded=0;orthogonalLoop=1;jettySize=auto;html=1;entryX=0;entryY=0.5;entryDx=0;entryDy=0;" edge="1" parent="1" source="WNM4cOuRWmxgdN0Uf4mu-4" target="WNM4cOuRWmxgdN0Uf4mu-12">
          <mxGeometry relative="1" as="geometry" />
        </mxCell>
        <mxCell id="WNM4cOuRWmxgdN0Uf4mu-15" style="edgeStyle=orthogonalEdgeStyle;rounded=0;orthogonalLoop=1;jettySize=auto;html=1;entryX=0;entryY=0.5;entryDx=0;entryDy=0;" edge="1" parent="1" source="WNM4cOuRWmxgdN0Uf4mu-4" target="WNM4cOuRWmxgdN0Uf4mu-14">
          <mxGeometry relative="1" as="geometry" />
        </mxCell>
        <mxCell id="WNM4cOuRWmxgdN0Uf4mu-4" value="Plato" style="rounded=1;whiteSpace=wrap;html=1;" vertex="1" parent="1">
          <mxGeometry x="360" y="220" width="120" height="60" as="geometry" />
        </mxCell>
        <mxCell id="WNM4cOuRWmxgdN0Uf4mu-16" style="edgeStyle=orthogonalEdgeStyle;rounded=0;orthogonalLoop=1;jettySize=auto;html=1;" edge="1" parent="1" source="WNM4cOuRWmxgdN0Uf4mu-7" target="WNM4cOuRWmxgdN0Uf4mu-17">
          <mxGeometry relative="1" as="geometry">
            <mxPoint x="729.9999999999998" y="40" as="targetPoint" />
          </mxGeometry>
        </mxCell>
        <mxCell id="WNM4cOuRWmxgdN0Uf4mu-7" value="nombre" style="rounded=1;whiteSpace=wrap;html=1;" vertex="1" parent="1">
          <mxGeometry x="540" y="10" width="120" height="60" as="geometry" />
        </mxCell>
        <mxCell id="WNM4cOuRWmxgdN0Uf4mu-18" style="edgeStyle=orthogonalEdgeStyle;rounded=0;orthogonalLoop=1;jettySize=auto;html=1;" edge="1" parent="1" source="WNM4cOuRWmxgdN0Uf4mu-8" target="WNM4cOuRWmxgdN0Uf4mu-19">
          <mxGeometry relative="1" as="geometry">
            <mxPoint x="719.9999999999998" y="150" as="targetPoint" />
          </mxGeometry>
        </mxCell>
        <mxCell id="WNM4cOuRWmxgdN0Uf4mu-8" value="precio" style="rounded=1;whiteSpace=wrap;html=1;" vertex="1" parent="1">
          <mxGeometry x="540" y="120" width="120" height="60" as="geometry" />
        </mxCell>
        <mxCell id="WNM4cOuRWmxgdN0Uf4mu-20" style="edgeStyle=orthogonalEdgeStyle;rounded=0;orthogonalLoop=1;jettySize=auto;html=1;" edge="1" parent="1" source="WNM4cOuRWmxgdN0Uf4mu-12" target="WNM4cOuRWmxgdN0Uf4mu-21">
          <mxGeometry relative="1" as="geometry">
            <mxPoint x="719.9999999999998" y="250" as="targetPoint" />
          </mxGeometry>
        </mxCell>
        <mxCell id="WNM4cOuRWmxgdN0Uf4mu-12" value="descripcion" style="rounded=1;whiteSpace=wrap;html=1;" vertex="1" parent="1">
          <mxGeometry x="540" y="220" width="120" height="60" as="geometry" />
        </mxCell>
        <mxCell id="WNM4cOuRWmxgdN0Uf4mu-24" style="edgeStyle=orthogonalEdgeStyle;rounded=0;orthogonalLoop=1;jettySize=auto;html=1;entryX=0;entryY=0.5;entryDx=0;entryDy=0;" edge="1" parent="1" source="WNM4cOuRWmxgdN0Uf4mu-14" target="WNM4cOuRWmxgdN0Uf4mu-23">
          <mxGeometry relative="1" as="geometry" />
        </mxCell>
        <mxCell id="WNM4cOuRWmxgdN0Uf4mu-14" value="calorias" style="rounded=1;whiteSpace=wrap;html=1;" vertex="1" parent="1">
          <mxGeometry x="540" y="350" width="120" height="60" as="geometry" />
        </mxCell>
        <mxCell id="WNM4cOuRWmxgdN0Uf4mu-17" value="&quot;Gofres Belgas&quot;" style="rounded=1;whiteSpace=wrap;html=1;" vertex="1" parent="1">
          <mxGeometry x="719.9999999999998" y="10" width="120" height="60" as="geometry" />
        </mxCell>
        <mxCell id="WNM4cOuRWmxgdN0Uf4mu-19" value="7.95" style="rounded=1;whiteSpace=wrap;html=1;" vertex="1" parent="1">
          <mxGeometry x="719.9999999999998" y="120" width="120" height="60" as="geometry" />
        </mxCell>
        <mxCell id="WNM4cOuRWmxgdN0Uf4mu-21" value="&quot;Dos de nuestros famosos gofres belgas con abundante sirope.&quot;" style="rounded=1;whiteSpace=wrap;align=center;verticalAlign=top;fontSize=14;" vertex="1" parent="1">
          <mxGeometry x="720" y="213.75" width="170" height="72.5" as="geometry" />
        </mxCell>
        <mxCell id="WNM4cOuRWmxgdN0Uf4mu-23" value="650" style="rounded=1;whiteSpace=wrap;html=1;" vertex="1" parent="1">
          <mxGeometry x="745" y="350" width="120" height="60" as="geometry" />
        </mxCell>
      </root>
    </mxGraphModel>
  </diagram>
</mxfile>
